<?xml version="1.0" standalone="no"?>
<!DOCTYPE svg PUBLIC "-//W3C//DTD SVG 20010904//EN"
 "http://www.w3.org/TR/2001/REC-SVG-20010904/DTD/svg10.dtd">
<svg version="1.0" xmlns="http://www.w3.org/2000/svg"
 width="114.000000pt" height="80.000000pt" viewBox="0 0 114.000000 80.000000"
 preserveAspectRatio="xMidYMid meet">

<g transform="translate(0.000000,80.000000) scale(0.100000,-0.100000)"
fill="#000000" stroke="none">
<path d="M1040 582 c0 -4 9 -13 20 -20 16 -10 20 -23 20 -60 -1 -26 -1 -56 -1
-67 0 -11 1 -43 1 -72 1 -43 -2 -52 -19 -58 -12 -3 -21 -11 -21 -16 0 -16 29
-10 50 11 16 16 18 28 13 70 -5 42 -3 50 11 50 9 0 16 7 16 15 0 8 -7 15 -15
15 -12 0 -15 13 -15 60 0 48 -4 61 -19 70 -23 12 -41 13 -41 2z"/>
<path d="M181 509 c-84 -33 -56 -145 35 -137 20 2 39 9 42 16 3 10 -4 12 -30
7 -26 -5 -39 -2 -51 10 -39 38 -6 91 50 80 40 -7 45 11 7 25 -14 6 -26 10 -27
9 -1 0 -13 -5 -26 -10z"/>
<path d="M614 510 c-49 -20 -32 -72 27 -84 42 -8 32 -31 -14 -31 -52 0 -51
-19 1 -23 79 -6 102 48 32 75 -51 20 -55 47 -5 41 40 -5 50 16 13 26 -28 7
-28 7 -54 -4z"/>
<path d="M925 511 c-49 -21 -64 -83 -30 -121 25 -27 88 -27 115 0 25 25 26 81
3 103 -23 20 -63 28 -88 18z m68 -42 c5 -9 7 -28 3 -42 -7 -31 -48 -46 -71
-27 -18 15 -20 61 -3 78 17 17 58 11 71 -9z"/>
<path d="M292 443 c2 -55 6 -68 21 -71 12 -2 17 3 17 17 0 27 26 27 42 1 7
-11 21 -20 31 -20 16 0 16 2 1 25 -10 15 -12 25 -5 25 16 0 24 45 11 69 -9 17
-20 21 -66 21 l-55 0 3 -67z m88 32 c16 -19 -3 -45 -31 -45 -14 0 -19 7 -19
30 0 23 5 30 19 30 10 0 24 -7 31 -15z"/>
<path d="M450 440 l0 -70 55 0 c30 0 55 5 55 10 0 6 -18 10 -40 10 -33 0 -40
3 -40 20 0 16 7 20 35 20 19 0 35 5 35 10 0 6 -16 10 -35 10 -28 0 -35 4 -35
20 0 17 7 20 40 20 22 0 40 5 40 10 0 6 -25 10 -55 10 l-55 0 0 -70z"/>
<path d="M730 440 c0 -56 3 -70 15 -70 8 0 15 9 15 20 0 15 7 20 26 20 41 0
64 18 64 48 0 40 -17 52 -72 52 l-48 0 0 -70z m88 26 c4 -20 -13 -36 -40 -36
-13 0 -18 8 -18 31 0 27 3 30 27 27 18 -2 29 -10 31 -22z"/>
</g>
</svg>
