<?xml version="1.0" standalone="no"?>
<!DOCTYPE svg PUBLIC "-//W3C//DTD SVG 20010904//EN"
 "http://www.w3.org/TR/2001/REC-SVG-20010904/DTD/svg10.dtd">
<svg version="1.0" xmlns="http://www.w3.org/2000/svg"
 width="200.000000pt" height="140.000000pt" viewBox="0 0 200.000000 140.000000"
 preserveAspectRatio="xMidYMid meet">

<g transform="translate(0.000000,140.000000) scale(0.100000,-0.100000)"
fill="#000000" stroke="none">
<path d="M1827 1017 c-4 -11 5 -21 31 -34 41 -20 42 -24 28 -123 -6 -47 -4
-59 12 -75 18 -19 18 -21 1 -50 -15 -26 -16 -40 -7 -100 9 -66 8 -71 -12 -87
-12 -10 -28 -18 -36 -18 -8 0 -14 -9 -14 -20 0 -24 18 -25 65 -6 43 18 50 42
40 141 -7 73 -6 75 19 86 32 15 34 41 4 54 -22 9 -23 15 -20 96 3 78 1 89 -20
113 -28 32 -82 45 -91 23z"/>
<path d="M304 890 c-11 -4 -33 -22 -47 -40 -21 -25 -27 -42 -27 -81 0 -42 5
-55 34 -86 29 -33 39 -37 92 -41 50 -3 63 0 87 18 25 20 27 24 14 37 -11 12
-19 12 -35 4 -11 -6 -37 -11 -56 -11 -49 0 -76 28 -76 80 0 52 27 80 78 80 20
0 44 -4 51 -9 15 -10 51 3 51 17 0 4 -13 15 -29 25 -31 18 -101 22 -137 7z"/>
<path d="M520 770 l0 -130 25 0 c22 0 25 4 25 35 0 33 2 35 34 35 28 0 38 -6
56 -35 17 -27 28 -35 51 -35 32 0 32 2 -3 52 -18 27 -18 28 1 47 30 30 36 68
17 107 -20 43 -48 54 -137 54 l-69 0 0 -130z m148 68 c18 -18 14 -56 -7 -68
-11 -5 -36 -10 -55 -10 -36 0 -36 0 -36 45 l0 45 43 0 c24 0 48 -5 55 -12z"/>
<path d="M790 770 l0 -130 101 0 c98 0 100 0 97 23 -3 20 -9 22 -70 25 -68 3
-68 3 -68 32 0 30 0 30 60 30 53 0 60 2 60 20 0 18 -7 20 -60 20 l-60 0 0 30
0 30 65 0 c63 0 65 1 65 25 0 25 0 25 -95 25 l-95 0 0 -130z"/>
<path d="M1054 877 c-49 -43 -26 -108 45 -123 49 -10 71 -24 71 -43 0 -27 -34
-35 -87 -20 -38 10 -46 10 -54 -2 -5 -8 -9 -17 -9 -21 0 -12 63 -28 112 -28
59 0 98 31 98 79 0 35 -23 54 -86 70 -23 6 -48 18 -55 27 -28 34 40 54 102 29
11 -4 19 0 23 12 11 26 -20 43 -80 43 -41 0 -59 -5 -80 -23z"/>
<path d="M1280 769 l0 -130 28 3 c22 2 28 8 30 36 3 27 7 32 30 32 80 0 132
37 132 93 0 67 -49 97 -155 97 l-65 0 0 -131z m148 69 c7 -7 12 -21 12 -33 0
-31 -19 -45 -62 -45 l-38 0 0 45 0 45 38 0 c21 0 43 -5 50 -12z"/>
<path d="M1593 878 c-19 -13 -40 -41 -49 -65 -20 -51 -8 -96 37 -139 27 -26
37 -29 95 -29 63 0 67 2 100 37 29 33 34 45 34 88 0 43 -5 56 -34 87 -30 33
-39 37 -92 40 -49 4 -64 1 -91 -19z m143 -49 c28 -31 25 -96 -5 -120 -54 -44
-141 -6 -141 61 0 69 100 109 146 59z"/>
</g>
</svg>
