<?xml version="1.0" standalone="no"?>
<!DOCTYPE svg PUBLIC "-//W3C//DTD SVG 20010904//EN"
 "http://www.w3.org/TR/2001/REC-SVG-20010904/DTD/svg10.dtd">
<svg version="1.0" xmlns="http://www.w3.org/2000/svg"
 width="32.000000pt" height="32.000000pt" viewBox="0 0 32.000000 32.000000"
 preserveAspectRatio="xMidYMid meet">
<metadata>
Created by potrace 1.10, written by Peter Selinger 2001-2011
</metadata>
<g transform="translate(0.000000,32.000000) scale(0.100000,-0.100000)"
fill="#000000" stroke="none">
<path d="M52 288 c-7 -7 -12 -31 -12 -54 0 -33 -5 -47 -22 -58 l-22 -16 22
-16 c17 -11 22 -25 22 -58 0 -45 13 -66 42 -66 24 0 23 16 -2 23 -16 4 -20 14
-20 49 0 24 -5 49 -12 56 -9 9 -9 15 0 24 7 7 12 26 12 44 0 42 9 64 26 64 8
0 14 5 14 10 0 14 -33 13 -48 -2z"/>
<path d="M220 291 c0 -5 9 -11 20 -14 16 -4 20 -14 20 -49 0 -24 5 -49 12 -56
9 -9 9 -15 0 -24 -7 -7 -12 -26 -12 -44 0 -42 -9 -64 -26 -64 -8 0 -14 -4 -14
-10 0 -14 33 -13 48 2 7 7 12 31 12 54 0 33 5 47 22 58 l22 16 -22 16 c-17 11
-22 25 -22 58 0 23 -5 47 -12 54 -14 14 -48 16 -48 3z"/>
<path d="M117 222 c-20 -22 -22 -91 -4 -116 17 -23 90 -19 95 6 2 12 -4 16
-29 15 -41 -2 -58 21 -41 57 9 20 19 26 42 26 20 0 30 5 30 15 0 23 -72 20
-93 -3z"/>
</g>
</svg>
